<svg version="1.1" xmlns="http://www.w3.org/2000/svg" xmlns:xlink="http://www.w3.org/1999/xlink" width="46.80637" height="46.80637" viewBox="0,0,46.80637,46.80637"><defs><radialGradient cx="238.87879" cy="178.05154" r="23.40318" gradientUnits="userSpaceOnUse" id="color-1"><stop offset="0" stop-color="#000000" stop-opacity="0"/><stop offset="1" stop-color="#000000"/></radialGradient><radialGradient cx="241.18375" cy="180.09054" r="17.75656" gradientTransform="translate(-287.9143,-248.37733) scale(1.27407,1.29952)" gradientUnits="userSpaceOnUse" id="color-2"><stop offset="0" stop-color="#ffffff"/><stop offset="1" stop-color="#800000"/></radialGradient><radialGradient cx="240.24079" cy="180.02975" r="17.75656" gradientTransform="translate(-286.7129,-248.29833) scale(1.27407,1.29952)" gradientUnits="userSpaceOnUse" id="color-3"><stop offset="0" stop-color="#ffffff"/><stop offset="1" stop-color="#55480a"/></radialGradient></defs><g transform="translate(-216.59681,-156.59681)"><g data-paper-data="{&quot;isPaintingLayer&quot;:true}" fill-rule="nonzero" stroke-linejoin="miter" stroke-miterlimit="10" stroke-dasharray="" stroke-dashoffset="0" style="mix-blend-mode: normal"><path d="M216.59682,195.85462c0,-9.99331 0,-26.98055 0,-32.37403c0,-3.24268 3.82306,-6.88377 7.1809,-6.88377c5.45217,0 22.29917,0 32.18359,0c4.4157,0 7.44188,3.03349 7.44188,7.45508c0,9.83032 0,26.52184 0,31.99316c0,3.42585 -3.86647,7.35814 -7.25144,7.35814c-5.43886,0 -22.11538,0 -31.99316,0c-4.48021,0 -7.56178,-3.07283 -7.56178,-7.54857z" fill="#000000" stroke="none" stroke-width="none" stroke-linecap="butt"/><path d="M245.01179,173.52475l-25.66921,18.273l31.65145,6.63484l10.65925,-19.03437z" fill="none" stroke="#ffffff" stroke-width="2" stroke-linecap="round"/><path d="M245.0118,173.52475l-25.66922,18.27301l31.65145,6.63483l10.65925,-19.03437z" fill="none" stroke="#ff3c3c" stroke-width="1" stroke-linecap="round"/><path d="M219.76219,165.30758l20.77491,20.41493l4.12134,-24.69708l-10.59773,3.58506z" fill="none" stroke="#ffffff" stroke-width="2" stroke-linecap="round"/><path d="M219.76219,165.30758l20.77491,20.41493l4.12134,-24.69708l-10.59773,3.58506z" fill="none" stroke="#ffd71d" stroke-width="1" stroke-linecap="round"/><path d="M216.59682,195.85462c0,-9.99331 0,-26.98055 0,-32.37403c0,-3.24268 3.82306,-6.88377 7.1809,-6.88377c5.45217,0 22.29917,0 32.18359,0c4.4157,0 7.44188,3.03349 7.44188,7.45508c0,9.83032 0,26.52184 0,31.99316c0,3.42585 -3.86647,7.35814 -7.25144,7.35814c-5.43886,0 -22.11538,0 -31.99316,0c-4.48021,0 -7.56178,-3.07283 -7.56178,-7.54857z" fill="url(#color-1)" stroke="none" stroke-width="none" stroke-linecap="butt"/><text transform="translate(225.97962,191.13008) scale(0.78489,0.76951)" font-size="40" xml:space="preserve" fill="url(#color-2)" fill-rule="nonzero" stroke="none" stroke-width="1" stroke-linecap="butt" stroke-linejoin="miter" stroke-miterlimit="10" stroke-dasharray="" stroke-dashoffset="0" font-family="Sans Serif" font-weight="normal" text-anchor="start" style="mix-blend-mode: normal"><tspan x="0" dy="0">M</tspan></text><text transform="translate(225.03666,191.06929) scale(0.78489,0.76951)" font-size="40" xml:space="preserve" fill="url(#color-3)" fill-rule="nonzero" stroke="none" stroke-width="1" stroke-linecap="butt" stroke-linejoin="miter" stroke-miterlimit="10" stroke-dasharray="" stroke-dashoffset="0" font-family="Sans Serif" font-weight="normal" text-anchor="start" style="mix-blend-mode: normal"><tspan x="0" dy="0">M</tspan></text><text transform="translate(225.58953,190.73999) scale(0.78489,0.76951)" font-size="40" xml:space="preserve" fill="#ffffff" fill-rule="nonzero" stroke="none" stroke-width="1" stroke-linecap="butt" stroke-linejoin="miter" stroke-miterlimit="10" stroke-dasharray="" stroke-dashoffset="0" font-family="Sans Serif" font-weight="normal" text-anchor="start" style="mix-blend-mode: normal"><tspan x="0" dy="0">M</tspan></text><path d="M232.75794,159.85536l-7.14509,0.1429l-5.57316,5.10655v6.63375" fill="none" stroke="#ffffff" stroke-width="0.5" stroke-linecap="round"/><path d="M259.96032,188.26144v6.63375l-5.57317,5.10655l-7.14509,0.1429" data-paper-data="{&quot;index&quot;:null}" fill="none" stroke="#ffffff" stroke-width="0.5" stroke-linecap="round"/></g></g></svg>